<?xml version="1.0" encoding="UTF-8"?>
<svg width="144.5mm" height="144.5mm" version="1.1" viewBox="0 0 511.99998 511.99998" xmlns="http://www.w3.org/2000/svg">
 <g transform="translate(-132.39 -111.21)">
  <rect x="132.39" y="111.21" width="512" height="512" fill="#ffbc21"/>
  <path transform="translate(132.39 111.21)" d="m251 17c-72.902 0-128.65 36.098-132 132-3.3461 95.902 14.952 142.05-89.314 257-11.393 12.56-21.249 25.437-29.686 38.459v67.541h512v-76.58c-7.0392-9.8646-14.908-19.691-23.686-29.42-108.89-120.68-104.82-160.8-105.31-257-0.49237-96.195-59.098-132-132-132z" fill="#212121"/>
  <path d="m388 392.36a191.62 191.62 0 0 0 -191.62 191.62 191.62 191.62 0 0 0 1.6449 23.145h380.03a191.62 191.62 0 0 0 1.5627 -23.145 191.62 191.62 0 0 0 -191.62 -191.62z" fill="#fff"/>
  <path d="m268.81 353.9c-9.3809 29.889 97.179 100.61 119.12 99.727 21.939-0.88736 122.23-69.838 119.12-99.727s-228.85-29.889-238.24 0z" fill="#212121"/>
  <path d="m268.81 336.9c-9.3809 29.889 97.179 100.61 119.12 99.727 21.939-0.88736 122.23-69.838 119.12-99.727s-228.85-29.889-238.24 0z" fill="#ffbc21"/>
  <g transform="matrix(.77566 0 0 .77566 85.436 76.037)">
   <circle cx="457.75" cy="225.08" r="53.134" fill="#fff"/>
  </g>
  <g transform="matrix(.6903 0 0 .6903 18.622 99.599)">
   <circle cx="457.75" cy="225.08" r="53.134" fill="#fff"/>
  </g>
  <g transform="matrix(.33216 0 0 .33216 288.44 175.86)">
   <circle cx="457.75" cy="225.08" r="53.134"/>
  </g>
  <g transform="matrix(.40941 0 0 .40941 147.2 162.82)">
   <circle cx="457.75" cy="225.08" r="53.134"/>
  </g>
 </g>
</svg>
